# xmcd
#
# Track frame offsets:
#	150
#	17181
#	27920
#	39554
#	50948
#	62347
#	71790
#	87559
#	105955
#	119645
#	128910
#
# Disc length: 1939 seconds
#
# Revision: 16
# Processed by: cddbd v1.5.2PL0 Copyright (c) Steve Scherf et al.
# Submitted via: Jack! The Knife 20 Magnifico
#
DISCID=9c07910b
DTITLE=La Polla Records - Los Jubilados
DYEAR=1990
DGENRE=Punk
TTITLE0=Ivan
TTITLE1=El Coleguilla
TTITLE2=Podredumbre
TTITLE3=Listìsimos
TTITLE4=Inùtil VI
TTITLE5=El Conjunto
TTITLE6=Mis Rinones
TTITLE7=El Obrero
TTITLE8=Huelga General
TTITLE9=Anuncio
TTITLE10=El Sindicato
EXTD=La Polla Records, Jean Phocas, Marino Goñi
EXTT0=
EXTT1=
EXTT2=
EXTT3=
EXTT4=
EXTT5=
EXTT6=
EXTT7=
EXTT8=
EXTT9=
EXTT10=
PLAYORDER=
